<?xml version="1.0" encoding="utf-8"?>
<!-- Generator: Adobe Illustrator 19.2.1, SVG Export Plug-In . SVG Version: 6.00 Build 0)  -->
<svg version="1.1" id="Layer_1" xmlns="http://www.w3.org/2000/svg" xmlns:xlink="http://www.w3.org/1999/xlink" x="0px" y="0px"
	 viewBox="0 0 348.3 79.7" style="enable-background:new 0 0 348.3 79.7;" xml:space="preserve">
<style type="text/css">
	.st0{fill:#010101;}
	.st1{font-family:'Montserrat-Bold';}
	.st2{font-size:28.7px;}
	.st3{fill:none;stroke:#000000;stroke-width:2;stroke-miterlimit:10;}
</style>
<title>Logo</title>
<path d="M233.7,0c0,0-5.9,18.6,13,26.6c0,0,5.7-4.6,0.1-9.6S233.6,6.7,233.7,0"/>
<path d="M250.7,4.5c0,0-10.4,9.1-3.1,21.4c2.7-0.9,4.2-3.8,3.4-6.5C249.9,14.3,247.9,8.2,250.7,4.5"/>
<path d="M259.2,20.5c0,0-5-0.9-9.8,4.7c-3.7,4.3-8.1,0.5-13,3.5c4.2-2.6,8-5.7,11.4-9.2C253.1,13.9,257.2,19.7,259.2,20.5"/>
<polygon points="146.2,8.1 127.4,24.9 120.6,22.2 94,37.8 99.4,37.8 119.3,25.1 116.7,32.6 119.5,34.1 115.8,37.8 119.9,37.8 
	147.1,10.7 143,23.8 146.6,28.3 142.6,33.6 144.2,37.8 148.9,37.8 150.1,37.5 174.9,16.2 172.5,25 174.5,28 170.5,31.3 174,37.8 
	177.7,37.8 201.5,21.6 201.5,27.4 204.7,28.7 199.1,35.5 198.9,37.8 231.2,37.8 202.5,19.5 193.8,24.5 173.5,13.5 164,21.4 "/>
<text transform="matrix(1 0 0 1 49 65.13)" class="st0 st1 st2">FLY </text>
<text transform="matrix(1 0 0 1 108.8 65.13)" class="st0 st1 st2">T</text>
<text transform="matrix(1 0 0 1 125.42 65.13)" class="st0 st1 st2">O THE LIMIT</text>
<line class="st3" x1="49.4" y1="37.8" x2="295.7" y2="37.8"/>
<line class="st3" x1="49.4" y1="72.5" x2="295.7" y2="72.5"/>
</svg>
